# xmcd
#
# Track frame offsets: 
#        150
#        18886
#        36870
#        54589
#        68463
#        87826
#        103024
#        121022
#        139088
#        156710
#        173914
#        188818
#        207010
#
# Disc length: 3051 seconds
#
# Revision: 0
# Processed by: cddbd v1.5.2PL0 Copyright (c) Steve Scherf et al.
# Submitted via: ExactAudioCopy v0.95b4
#
DISCID=a80be90d
DTITLE=Shawn Desman - Back for more
DYEAR=1900
DGENRE=R&B
TTITLE0=Back for more
TTITLE1=Let's go
TTITLE2=Sexy
TTITLE3=Ooh
TTITLE4=Insomniac
TTITLE5=Hurt
TTITLE6=Red hair
TTITLE7=She ain't coming back
TTITLE8=Nobody
TTITLE9=What if
TTITLE10=Man in me
TTITLE11=That's love
TTITLE12=Butterflies
EXTD=
EXTT0=
EXTT1=
EXTT2=
EXTT3=
EXTT4=
EXTT5=
EXTT6=
EXTT7=
EXTT8=
EXTT9=
EXTT10=
EXTT11=
EXTT12=
PLAYORDER=
